Simulation
nRows=19
nColumns=15
endheader
time  TH_x TH_y TH_z SC_y  SC_z  SC_x  AC_y  AC_z  AC_x  GH_y  GH_z  GH_yy  EL_x  PS_y
1.6000000000000014  0.000000  0.000000  0.000000  -49.1349398039419  17.07021037732829  32.01951493932348  59.02585794510301  6.415015572019193  16.81562958112863  67.2470952961207  61.45442560321359  -75.66643748971813  18.313933966491245  120.000000
1.6320000000000014  0.000000  0.000000  0.000000  -49.164395197233986  17.054639575558213  32.66802455094277  59.00103351360057  5.925945111143873  16.463322603483856  67.36329310744323  61.187017975648416  -75.61512870197762  18.347495922854737  120.000000
1.6640000000000015  0.000000  0.000000  0.000000  -49.10407668583178  16.986775886307914  33.02834769953329  58.96172862550101  5.516340169068822  16.06947782782053  67.58210308604009  60.789406200794105  -75.49432376008022  18.384420431482496  120.000000
1.6960000000000015  0.000000  0.000000  0.000000  -48.953916563480675  16.86416363827912  33.08570478534273  58.9089089062206  5.202734870663181  15.644429050142495  67.89028791954382  60.26704575575204  -75.31634994976378  18.42366766711247  120.000000
1.7280000000000015  0.000000  0.000000  0.000000  -48.712233583869065  16.682279705667916  32.83123509776282  58.84312919311438  4.996483709744911  15.198106403754055  68.26569730355608  59.626642506241076  -75.09732656933461  18.464175666154247  120.000000
1.7600000000000016  0.000000  0.000000  0.000000  -48.38160320234094  16.437100733874885  32.264227961206046  58.76646168211762  4.900726376747941  14.738566187818124  68.6805611418286  58.87731090253431  -74.85375672862371  18.5049513217488  120.000000
1.7920000000000016  0.000000  0.000000  0.000000  -47.96450339264274  16.124486220481728  31.3872250851625  58.68146926471705  4.91031652536864  14.272987741314363  69.10549390671612  58.02975680462817  -74.59940430530051  18.545549485688568  120.000000
1.8240000000000016  0.000000  0.000000  0.000000  -47.46917397757262  15.742754770186316  30.212016967485823  58.58999897787881  5.014021189531888  13.809296220118561  69.50989109204384  57.09424904129031  -74.33906672477252  18.584877734755533  120.000000
1.8560000000000016  0.000000  0.000000  0.000000  -46.905753923203825  15.2907441076647  28.75992242916605  58.49149783876944  5.197709462583708  13.356925167502688  69.86495468020784  56.0786525494922  -74.06331758724562  18.620163690684656  120.000000
1.8880000000000017  0.000000  0.000000  0.000000  -46.290049997391016  14.769952569342221  27.066719461715703  58.38364988748041  5.446876640300317  12.925932730372809  70.14569640321285  54.98679839469852  -73.74722779400958  18.6479141363556  120.000000
1.9200000000000017  0.000000  0.000000  0.000000  -45.6367554922631  14.182990768439197  25.175871190945593  58.261591654048765  5.749419906787928  12.52603818467757  70.33379862841412  53.81988861583593  -73.35122707987975  18.663689081055757  120.000000
1.9520000000000017  0.000000  0.000000  0.000000  -44.96504707931539  13.537187395927798  23.14172744883494  58.11955481369886  6.096316631060551  12.165142803233788  70.41835007746351  52.57622407118342  -72.8298452412886  18.66370006993097  120.000000
1.9840000000000018  0.000000  0.000000  0.000000  -44.292493527508675  12.842757871251477  21.019094292537066  57.95106572253839  6.482460373562499  11.848353012376926  70.3949249886738  51.25557148785374  -72.13880612353326  18.645850749080523  120.000000
2.016000000000002  0.000000  0.000000  0.000000  -43.63619431976249  12.112879438042839  18.86378553121925  57.75051079577721  6.903598971326832  11.575230799560504  70.26478719154439  49.85970383218386  -71.24665752989394  18.6121767298974  120.000000
2.048000000000002  0.000000  0.000000  0.000000  -43.006312265462654  11.361884497782162  16.72138164232172  57.51266354828261  7.35531236176665  11.34142440509942  70.0338882442898  48.3944066639327  -70.1401777481282  18.57071089198996  120.000000
2.080000000000002  0.000000  0.000000  0.000000  -42.41038515382799  10.605240421722781  14.628879515369633  57.23249492865881  7.8300065223271735  11.13927971421032  69.71299405636073  46.86799318722247  -68.82765646954336  18.536241745444055  120.000000
2.112000000000002  0.000000  0.000000  0.000000  -41.84914913673995  9.857222700980119  12.611522873103361  56.90539872267586  8.317981312140247  10.959576770301974  69.3151288457693  45.289754618490385  -67.33541385862625  18.528751577359625  120.000000
2.144000000000002  0.000000  0.000000  0.000000  -41.32185142276019  9.130896769211118  10.685982435813255  56.526652400608  8.808088957432416  10.79349271639583  68.85454773932464  43.66819567673993  -65.7004601953587  18.56950922956302  120.000000
2.176000000000002  0.000000  0.000000  0.000000  -40.8237548202254  8.436592482262702  8.861442064020967  56.09388043959927  9.288777997701445  10.633588044546311  68.34305973807388  42.01016937508272  -63.962779644789435  18.67707313426441  120.000000
